<svg width="255" height="250" viewBox="0 0 255 250" fill="none" xmlns="http://www.w3.org/2000/svg">
<g clip-path="url(#clip0_110_2)">
<mask id="mask0_110_2" style="mask-type:luminance" maskUnits="userSpaceOnUse" x="46" y="-1" width="162" height="201">
<path d="M46.5 -0.416626H207.5V199.583H46.5V-0.416626Z" fill="white"/>
</mask>
<g mask="url(#mask0_110_2)">
<path d="M207.5 80.1875C207.5 35.9167 171.776 -0.0208336 127.578 -0.359375C127.411 -0.359375 127.24 -0.359375 127.047 -0.359375C127.026 -0.359375 127.026 -0.359375 127 -0.359375C126.974 -0.359375 126.974 -0.359375 126.953 -0.359375C126.781 -0.359375 126.615 -0.359375 126.422 -0.359375C82.224 -0.0208336 46.5 35.9167 46.5 80.1875C46.5 90.5417 48.4531 100.417 52.0052 109.516C52.026 109.542 52.026 109.563 52.026 109.609C52.0781 109.755 52.1458 109.901 52.1979 110.047C66.776 146.786 94.1719 172.323 119.323 195.714C121.88 197.958 124.198 199.188 126.422 199.453V199.5C126.615 199.5 126.807 199.5 127 199.5C127.193 199.5 127.385 199.526 127.578 199.5V199.453C129.802 199.188 132.12 197.958 134.677 195.714C159.828 172.323 187.224 146.786 201.802 110.021C201.854 109.875 201.922 109.734 201.974 109.589C201.974 109.563 201.995 109.542 201.995 109.49C205.547 100.417 207.5 90.5417 207.5 80.1875ZM126.953 140.047C94.5833 140.047 68.3698 113.813 68.3698 81.4688C68.3698 49.099 94.6094 22.8854 126.953 22.8854C159.323 22.8854 185.536 49.099 185.536 81.4688C185.536 113.813 159.323 140.047 126.953 140.047ZM156.688 90.5885C158.932 93.0521 158.792 95.5885 158.792 95.5885V112.99C158.792 115.453 156.88 117.432 154.516 117.432H138.708C138.708 117.432 135.109 117.552 135.109 114.052C135.109 110.578 135.109 97.0104 135.109 97.0104C135.109 96.0938 134.266 95.3438 133.203 95.3438H120.724C119.661 95.3438 118.818 96.0938 118.818 97.0104C118.818 97.0104 118.818 110.385 118.818 114.052C118.818 117.724 115.557 117.432 115.557 117.432H99.4323C97.0677 117.432 95.1615 115.453 95.1615 112.99V93.6563C95.1615 93.6563 95.0885 92.8854 95.8125 92.1094C99.75 88.0313 120.12 66.8646 122.391 64.5C127.099 59.8125 127.099 59.8125 131.516 64.5C134.964 68 150.922 84.5781 156.688 90.5885ZM173.974 88.3229L167.792 94.7448C167.406 95.151 166.901 95.3438 166.391 95.3438C166.031 95.3438 165.667 95.25 165.354 95.0313L127.99 56.2448C127.432 55.6615 126.542 55.6615 126.01 56.2448L88.6667 95.0313C88.3542 95.224 87.9948 95.3438 87.6302 95.3438C87.125 95.3438 86.6198 95.151 86.2292 94.7448L80.0521 88.3229C79.2813 87.5 79.2813 86.1979 80.0521 85.401L119.422 44.5104L125.599 38.0885C125.984 37.6823 126.495 37.4896 127 37.4896C127.505 37.4896 128.016 37.6823 128.401 38.0885L134.578 44.5104L147.13 57.5469V53.5885C147.13 52.8125 147.734 52.1875 148.505 52.1875H157.438C158.188 52.1875 158.813 52.8125 158.813 53.5885V69.6406L173.974 85.375C174.745 86.1979 174.745 87.5 173.974 88.3229Z" fill="#FF7700"/>
</g>
<path d="M11.7374 226.596V228.2H2.17489V238.763C2.95093 238.43 3.84676 238.174 4.86239 237.992C5.88843 237.799 6.94572 237.69 8.02905 237.659C9.1228 237.617 10.1176 237.674 11.0082 237.825V239.305L10.7791 239.492C10.1124 239.315 9.2478 239.232 8.19572 239.242C7.15405 239.258 6.08114 239.362 4.98739 239.555C3.90405 239.737 2.96655 240.029 2.17489 240.43V249.93H0.404053V226.596H11.7374Z" fill="#FF7700"/>
<path d="M31.0433 242.555V226.596H29.2725V242.596C29.2725 243.961 29.0068 245.091 28.4808 245.992C27.9652 246.883 27.262 247.555 26.3766 248.013C25.5016 248.471 24.5433 248.7 23.5016 248.7C22.4183 248.7 21.4287 248.471 20.5433 248.013C19.6527 247.555 18.9391 246.883 18.3975 245.992C17.8662 245.091 17.6058 243.961 17.6058 242.596V226.596H15.835V242.555C15.835 244.096 16.0641 245.367 16.5225 246.367C16.9912 247.367 17.6058 248.159 18.3558 248.742C19.1162 249.315 19.9495 249.716 20.8558 249.95C21.7568 250.185 22.637 250.305 23.5016 250.305C24.3454 250.305 25.21 250.185 26.085 249.95C26.96 249.716 27.762 249.315 28.5016 248.742C29.2516 248.159 29.861 247.367 30.335 246.367C30.8037 245.367 31.0433 244.096 31.0433 242.555Z" fill="#FF7700"/>
<path d="M61.6889 226.596H63.4597V249.93H61.6889V239.055H49.1681V249.93H47.3972V226.596H49.1681V237.471H61.6889V226.596Z" fill="#FF7700"/>
<path d="M68.5938 238.263C68.5938 235.419 69.0417 233.112 69.9479 231.346C70.8646 229.586 72.0573 228.284 73.5313 227.45C75.0156 226.617 76.625 226.2 78.3646 226.2C80.099 226.2 81.7031 226.617 83.1771 227.45C84.6458 228.284 85.8438 229.586 86.7604 231.346C87.6771 233.112 88.1354 235.419 88.1354 238.263C88.1354 241.086 87.6771 243.383 86.7604 245.159C85.8438 246.94 84.6458 248.242 83.1771 249.075C81.7031 249.909 80.099 250.325 78.3646 250.325C76.625 250.325 75.0156 249.909 73.5313 249.075C72.0573 248.242 70.8646 246.94 69.9479 245.159C69.0417 243.383 68.5938 241.086 68.5938 238.263ZM70.3854 238.263C70.3854 240.596 70.7292 242.534 71.4271 244.075C72.1354 245.607 73.0833 246.753 74.2813 247.513C75.4896 248.263 76.8333 248.638 78.3229 248.638C79.7917 248.638 81.1354 248.263 82.3438 247.513C83.5521 246.753 84.5156 245.607 85.2396 244.075C85.9583 242.534 86.3229 240.596 86.3229 238.263C86.3229 235.904 85.9531 233.966 85.2188 232.45C84.4948 230.924 83.5208 229.784 82.3021 229.034C81.0938 228.273 79.7656 227.888 78.3229 227.888C76.8333 227.888 75.4896 228.279 74.2813 229.055C73.0833 229.82 72.1354 230.971 71.4271 232.513C70.7292 234.044 70.3854 235.961 70.3854 238.263Z" fill="#FF7700"/>
<path d="M107.932 242.555V226.596H106.161V242.596C106.161 243.961 105.896 245.091 105.369 245.992C104.854 246.883 104.151 247.555 103.265 248.013C102.39 248.471 101.432 248.7 100.39 248.7C99.307 248.7 98.3174 248.471 97.432 248.013C96.5413 247.555 95.8278 246.883 95.2861 245.992C94.7549 245.091 94.4945 243.961 94.4945 242.596V226.596H92.7236V242.555C92.7236 244.096 92.9528 245.367 93.4111 246.367C93.8799 247.367 94.4945 248.159 95.2445 248.742C96.0049 249.315 96.8382 249.716 97.7445 249.95C98.6455 250.185 99.5257 250.305 100.39 250.305C101.234 250.305 102.099 250.185 102.974 249.95C103.849 249.716 104.651 249.315 105.39 248.742C106.14 248.159 106.75 247.367 107.224 246.367C107.692 245.367 107.932 244.096 107.932 242.555Z" fill="#FF7700"/>
<path d="M126.021 244.492C126.021 246.315 125.422 247.742 124.229 248.784C123.047 249.815 121.458 250.325 119.458 250.325C118.359 250.325 117.375 250.19 116.5 249.93C115.625 249.68 114.875 249.383 114.25 249.034C113.625 248.674 113.156 248.378 112.854 248.138V246.388H113.187C113.854 246.971 114.755 247.508 115.896 247.992C117.047 248.482 118.234 248.721 119.458 248.721C120.302 248.721 121.088 248.596 121.812 248.346C122.547 248.096 123.146 247.69 123.604 247.117C124.062 246.549 124.292 245.805 124.292 244.888C124.292 244.221 124.156 243.633 123.896 243.117C123.646 242.591 123.219 242.07 122.625 241.555C122.042 241.029 121.229 240.445 120.187 239.805L117.562 238.138C117.13 237.862 116.614 237.534 116.021 237.159C115.437 236.784 114.859 236.341 114.292 235.825C113.734 235.315 113.271 234.7 112.896 233.992C112.531 233.284 112.354 232.466 112.354 231.534C112.354 229.758 112.943 228.43 114.125 227.555C115.318 226.669 116.802 226.221 118.583 226.221C119.734 226.221 120.708 226.346 121.5 226.596C122.292 226.846 122.937 227.138 123.437 227.471C123.937 227.805 124.318 228.107 124.583 228.367V230.096H124.25C124.026 229.805 123.614 229.487 123.021 229.138C122.437 228.779 121.734 228.471 120.917 228.221C120.094 227.961 119.208 227.825 118.25 227.825C117.125 227.825 116.146 228.148 115.312 228.784C114.489 229.409 114.083 230.294 114.083 231.43C114.083 232.461 114.422 233.336 115.104 234.055C115.797 234.779 116.625 235.445 117.583 236.055L121.417 238.534C122.26 239.065 123.026 239.607 123.708 240.159C124.401 240.7 124.958 241.32 125.375 242.013C125.802 242.695 126.021 243.523 126.021 244.492Z" fill="#FF7700"/>
<path d="M142.451 226.596V228.2H132.722V237.638C133.498 237.305 134.394 237.044 135.41 236.846C136.436 236.654 137.493 236.544 138.576 236.513C139.67 236.487 140.665 236.549 141.556 236.7V238.159L141.326 238.367C140.66 238.19 139.795 238.107 138.743 238.117C137.701 238.133 136.628 238.237 135.535 238.43C134.451 238.612 133.514 238.904 132.722 239.305V248.325H142.451V249.93H130.951V226.596H142.451Z" fill="#FF7700"/>
<path d="M169.481 226.596V228.2H159.919V238.763C160.695 238.43 161.59 238.174 162.606 237.992C163.632 237.799 164.689 237.69 165.773 237.659C166.866 237.617 167.861 237.674 168.752 237.825V239.305L168.523 239.492C167.856 239.315 166.991 239.232 165.939 239.242C164.898 239.258 163.825 239.362 162.731 239.555C161.648 239.737 160.71 240.029 159.919 240.43V249.93H158.148V226.596H169.481Z" fill="#FF7700"/>
<path d="M174.079 226.596H175.849V249.93H174.079V226.596Z" fill="#FF7700"/>
<path d="M195.353 226.596H197.103V249.93H193.769L184.248 228.263H183.748V249.93H181.978V226.596H185.311L194.915 248.263H195.415L195.353 226.596Z" fill="#FF7700"/>
<path d="M208.908 226.596H203.241V249.93H208.908C210.793 249.93 212.476 249.513 213.95 248.68C215.434 247.846 216.601 246.57 217.45 244.846C218.309 243.128 218.741 240.93 218.741 238.263C218.741 235.57 218.309 233.367 217.45 231.659C216.601 229.95 215.434 228.68 213.95 227.846C212.476 227.013 210.793 226.596 208.908 226.596ZM205.012 248.325V228.2H208.845C211.288 228.2 213.246 229.07 214.72 230.805C216.205 232.529 216.95 235.013 216.95 238.263C216.95 241.445 216.21 243.919 214.741 245.68C213.267 247.445 211.304 248.325 208.845 248.325H205.012Z" fill="#FF7700"/>
<path d="M235.338 226.596V228.2H225.609V237.638C226.385 237.305 227.281 237.044 228.296 236.846C229.323 236.654 230.38 236.544 231.463 236.513C232.557 236.487 233.552 236.549 234.442 236.7V238.159L234.213 238.367C233.546 238.19 232.682 238.107 231.63 238.117C230.588 238.133 229.515 238.237 228.421 238.43C227.338 238.612 226.401 238.904 225.609 239.305V248.325H235.338V249.93H223.838V226.596H235.338Z" fill="#FF7700"/>
<path d="M240.332 226.596H247.811C249.113 226.596 250.274 226.862 251.29 227.388C252.3 227.904 253.102 228.68 253.686 229.721C254.269 230.753 254.561 232.029 254.561 233.555C254.561 235.471 254.071 237.008 253.102 238.159C252.144 239.299 250.957 240.013 249.54 240.305L254.54 249.534V249.93H252.811L247.727 240.43H242.04V249.93H240.269L240.332 226.596ZM242.04 238.825H247.811C248.712 238.825 249.529 238.633 250.269 238.242C251.019 237.857 251.623 237.279 252.082 236.513C252.54 235.753 252.769 234.799 252.769 233.659C252.769 232.424 252.54 231.404 252.082 230.596C251.623 229.779 251.019 229.174 250.269 228.784C249.529 228.398 248.712 228.2 247.811 228.2H242.04V238.825Z" fill="#FF7700"/>
</g>
<defs>
<clipPath id="clip0_110_2">
<rect width="255" height="250" fill="white"/>
</clipPath>
</defs>
</svg>
