<svg width="309" height="100" viewBox="0 0 309 100" fill="none" xmlns="http://www.w3.org/2000/svg">
<g clip-path="url(#clip0_110_66)">
<mask id="mask0_110_66" style="mask-type:luminance" maskUnits="userSpaceOnUse" x="-1" y="0" width="82" height="100">
<path d="M-0.088623 0H80.9114V100H-0.088623V0Z" fill="white"/>
</mask>
<g mask="url(#mask0_110_66)">
<path d="M80.4114 40.3021C80.4114 18.1667 62.5468 0.197938 40.4478 0.026062C40.3645 0.026062 40.2812 0.026062 40.1822 0.026062C40.1718 0.026062 40.1718 0.026062 40.1614 0.026062C40.1458 0.026062 40.1458 0.026062 40.1353 0.026062C40.052 0.026062 39.9635 0.026062 39.8697 0.026062C17.7708 0.197938 -0.088623 18.1667 -0.088623 40.3021C-0.088623 45.4792 0.885334 50.4167 2.66138 54.9688C2.67179 54.9792 2.67179 54.9896 2.67179 55.0156C2.69784 55.0886 2.73429 55.1615 2.75513 55.2344C10.0468 73.599 23.7447 86.3698 36.3228 98.0625C37.5989 99.1875 38.7603 99.8021 39.8697 99.9375V99.9584C39.9635 99.9584 40.0624 99.9584 40.1614 99.9584C40.2551 99.9584 40.3541 99.974 40.4478 99.9584V99.9375C41.5572 99.8021 42.7187 99.1875 43.9947 98.0625C56.5728 86.3698 70.2708 73.599 77.5624 55.2188C77.5833 55.1459 77.6197 55.0729 77.6458 55C77.6458 54.9896 77.6562 54.9792 77.6562 54.9531C79.4322 50.4167 80.4114 45.4792 80.4114 40.3021ZM40.1353 70.2344C23.9478 70.2344 10.8437 57.1146 10.8437 40.9427C10.8437 24.7552 23.9635 11.6511 40.1353 11.6511C56.3176 11.6511 69.427 24.7552 69.427 40.9427C69.427 57.1146 56.3176 70.2344 40.1353 70.2344ZM55.0051 45.5052C56.1249 46.7344 56.052 48 56.052 48V56.7031C56.052 57.9375 55.0989 58.9271 53.9166 58.9271H46.0103C46.0103 58.9271 44.2135 58.9844 44.2135 57.2344C44.2135 55.5 44.2135 48.7136 44.2135 48.7136C44.2135 48.2552 43.7916 47.8802 43.2603 47.8802H37.0208C36.4895 47.8802 36.0676 48.2552 36.0676 48.7136C36.0676 48.7136 36.0676 55.4011 36.0676 57.2344C36.0676 59.0677 34.4374 58.9271 34.4374 58.9271H26.3749C25.1926 58.9271 24.2395 57.9375 24.2395 56.7031V47.0365C24.2395 47.0365 24.203 46.6511 24.5676 46.2656C26.5312 44.224 36.7187 33.6406 37.8541 32.4584C40.2083 30.1146 40.2083 30.1146 42.4166 32.4584C44.1405 34.2084 52.1197 42.5 55.0051 45.5052ZM63.6458 44.3698L60.5572 47.5781C60.3645 47.7865 60.1093 47.8802 59.8541 47.8802C59.677 47.8802 59.4947 47.8334 59.3385 47.724L40.6562 28.3281C40.3749 28.0417 39.9322 28.0417 39.6666 28.3281L20.9947 47.724C20.8385 47.8229 20.6562 47.8802 20.4739 47.8802C20.2187 47.8802 19.9687 47.7865 19.776 47.5781L16.6874 44.3698C16.2968 43.9584 16.2968 43.3073 16.6874 42.9115L36.3697 22.4636L39.4583 19.2552C39.651 19.0469 39.9062 18.9531 40.1614 18.9531C40.4114 18.9531 40.6666 19.0469 40.8593 19.2552L43.9478 22.4636L50.2239 28.9844V27C50.2239 26.6146 50.526 26.3021 50.9114 26.3021H55.3801C55.7499 26.3021 56.0676 26.6146 56.0676 27V35.0261L63.6458 42.8959C64.0312 43.3073 64.0312 43.9584 63.6458 44.3698Z" fill="#FF7700"/>
</g>
<mask id="mask1_110_66" style="mask-type:luminance" maskUnits="userSpaceOnUse" x="106" y="0" width="6" height="100">
<path d="M106.365 0H111.365V100H106.365V0Z" fill="white"/>
</mask>
<g mask="url(#mask1_110_66)">
<mask id="mask2_110_66" style="mask-type:luminance" maskUnits="userSpaceOnUse" x="106" y="0" width="6" height="100">
<path d="M108.865 0C110.245 0 111.365 1.11979 111.365 2.5V97.5C111.365 98.8802 110.245 100 108.865 100C107.484 100 106.365 98.8802 106.365 97.5V2.5C106.365 1.11979 107.484 0 108.865 0Z" fill="white"/>
</mask>
<g mask="url(#mask2_110_66)">
<path d="M106.365 0H111.365V100H106.365V0Z" fill="#FF7700"/>
</g>
</g>
<path d="M232.655 14.9394H234.426V38.2727H232.655V27.3977H220.134V38.2727H218.363V14.9394H220.134V25.8144H232.655V14.9394Z" fill="#FF7700"/>
<path d="M238.493 26.6061C238.493 23.7623 238.941 21.455 239.847 19.6894C240.764 17.929 241.956 16.6269 243.43 15.7936C244.915 14.9602 246.524 14.5436 248.264 14.5436C249.998 14.5436 251.602 14.9602 253.076 15.7936C254.545 16.6269 255.743 17.929 256.66 19.6894C257.576 21.455 258.035 23.7623 258.035 26.6061C258.035 29.429 257.576 31.7259 256.66 33.5019C255.743 35.2832 254.545 36.5852 253.076 37.4186C251.602 38.2519 249.998 38.6686 248.264 38.6686C246.524 38.6686 244.915 38.2519 243.43 37.4186C241.956 36.5852 240.764 35.2832 239.847 33.5019C238.941 31.7259 238.493 29.429 238.493 26.6061ZM240.285 26.6061C240.285 28.9394 240.628 30.8769 241.326 32.4186C242.035 33.9498 242.983 35.0957 244.18 35.8561C245.389 36.6061 246.733 36.9811 248.222 36.9811C249.691 36.9811 251.035 36.6061 252.243 35.8561C253.451 35.0957 254.415 33.9498 255.139 32.4186C255.858 30.8769 256.222 28.9394 256.222 26.6061C256.222 24.2467 255.852 22.3092 255.118 20.7936C254.394 19.2675 253.42 18.1269 252.201 17.3769C250.993 16.6165 249.665 16.2311 248.222 16.2311C246.733 16.2311 245.389 16.6217 244.18 17.3977C242.983 18.1634 242.035 19.3144 241.326 20.8561C240.628 22.3873 240.285 24.304 240.285 26.6061Z" fill="#FF7700"/>
<path d="M276.764 30.8977V14.9394H274.994V30.9394C274.994 32.304 274.728 33.4342 274.202 34.3352C273.686 35.2259 272.983 35.8977 272.098 36.3561C271.223 36.8144 270.264 37.0436 269.223 37.0436C268.139 37.0436 267.15 36.8144 266.264 36.3561C265.374 35.8977 264.66 35.2259 264.119 34.3352C263.587 33.4342 263.327 32.304 263.327 30.9394V14.9394H261.556V30.8977C261.556 32.4394 261.785 33.7102 262.244 34.7102C262.712 35.7102 263.327 36.5019 264.077 37.0852C264.837 37.6581 265.671 38.0592 266.577 38.2936C267.478 38.5279 268.358 38.6477 269.223 38.6477C270.067 38.6477 270.931 38.5279 271.806 38.2936C272.681 38.0592 273.483 37.6581 274.223 37.0852C274.973 36.5019 275.582 35.7102 276.056 34.7102C276.525 33.7102 276.764 32.4394 276.764 30.8977Z" fill="#FF7700"/>
<path d="M293.787 32.8352C293.787 34.6581 293.188 36.0852 291.995 37.1269C290.813 38.1581 289.224 38.6686 287.224 38.6686C286.125 38.6686 285.141 38.5331 284.266 38.2727C283.391 38.0227 282.641 37.7259 282.016 37.3769C281.391 37.0175 280.922 36.7206 280.62 36.4811V34.7311H280.953C281.62 35.3144 282.521 35.8509 283.662 36.3352C284.813 36.8248 286 37.0644 287.224 37.0644C288.068 37.0644 288.854 36.9394 289.578 36.6894C290.313 36.4394 290.912 36.0331 291.37 35.4602C291.828 34.8925 292.057 34.1477 292.057 33.2311C292.057 32.5644 291.922 31.9759 291.662 31.4602C291.412 30.9342 290.984 30.4134 290.391 29.8977C289.807 29.3717 288.995 28.7884 287.953 28.1477L285.328 26.4811C284.896 26.205 284.38 25.8769 283.787 25.5019C283.203 25.1269 282.625 24.6842 282.057 24.1686C281.5 23.6581 281.037 23.0436 280.662 22.3352C280.297 21.6269 280.12 20.8092 280.12 19.8769C280.12 18.1009 280.708 16.7727 281.891 15.8977C283.083 15.0123 284.568 14.5644 286.349 14.5644C287.5 14.5644 288.474 14.6894 289.266 14.9394C290.057 15.1894 290.703 15.4811 291.203 15.8144C291.703 16.1477 292.083 16.4498 292.349 16.7102V18.4394H292.016C291.792 18.1477 291.38 17.83 290.787 17.4811C290.203 17.1217 289.5 16.8144 288.682 16.5644C287.859 16.304 286.974 16.1686 286.016 16.1686C284.891 16.1686 283.912 16.4915 283.078 17.1269C282.255 17.7519 281.849 18.6373 281.849 19.7727C281.849 20.804 282.188 21.679 282.87 22.3977C283.563 23.1217 284.391 23.7884 285.349 24.3977L289.182 26.8769C290.026 27.4081 290.792 27.9498 291.474 28.5019C292.167 29.0436 292.724 29.6634 293.141 30.3561C293.568 31.0384 293.787 31.8665 293.787 32.8352Z" fill="#FF7700"/>
<path d="M309.151 14.9394V16.5436H299.421V25.9811C300.198 25.6477 301.093 25.3873 302.109 25.1894C303.135 24.9967 304.192 24.8873 305.276 24.8561C306.369 24.83 307.364 24.8925 308.255 25.0436V26.5019L308.026 26.7102C307.359 26.5331 306.494 26.4498 305.442 26.4602C304.401 26.4759 303.328 26.58 302.234 26.7727C301.151 26.955 300.213 27.2467 299.421 27.6477V36.6686H309.151V38.2727H297.651V14.9394H309.151Z" fill="#FF7700"/>
<path d="M229.462 47.9394V49.5436H219.899V60.1061C220.676 59.7727 221.571 59.5175 222.587 59.3352C223.613 59.1425 224.67 59.0331 225.754 59.0019C226.847 58.9602 227.842 59.0175 228.733 59.1686V60.6477L228.504 60.8352C227.837 60.6581 226.972 60.5748 225.92 60.5852C224.879 60.6009 223.806 60.705 222.712 60.8977C221.629 61.08 220.691 61.3717 219.899 61.7727V71.2727H218.129V47.9394H229.462Z" fill="#FF7700"/>
<path d="M232.993 47.9394H234.764V71.2727H232.993V47.9394Z" fill="#FF7700"/>
<path d="M253.2 47.9394H254.95V71.2727H251.617L242.096 49.6061H241.596V71.2727H239.825V47.9394H243.159L252.763 69.6061H253.263L253.2 47.9394Z" fill="#FF7700"/>
<path d="M265.689 47.9394H260.022V71.2727H265.689C267.574 71.2727 269.256 70.8561 270.73 70.0227C272.215 69.1894 273.381 67.9134 274.23 66.1894C275.09 64.4706 275.522 62.2727 275.522 59.6061C275.522 56.9134 275.09 54.7102 274.23 53.0019C273.381 51.2936 272.215 50.0227 270.73 49.1894C269.256 48.3561 267.574 47.9394 265.689 47.9394ZM261.793 69.6686V49.5436H265.626C268.069 49.5436 270.027 50.4134 271.501 52.1477C272.986 53.8717 273.73 56.3561 273.73 59.6061C273.73 62.7884 272.991 65.2623 271.522 67.0227C270.048 68.7884 268.084 69.6686 265.626 69.6686H261.793Z" fill="#FF7700"/>
<path d="M291.052 47.9394V49.5436H281.323V58.9811C282.099 58.6477 282.995 58.3873 284.011 58.1894C285.037 57.9967 286.094 57.8873 287.177 57.8561C288.271 57.83 289.266 57.8925 290.157 58.0436V59.5019L289.927 59.7102C289.261 59.5331 288.396 59.4498 287.344 59.4602C286.302 59.4759 285.23 59.58 284.136 59.7727C283.052 59.955 282.115 60.2467 281.323 60.6477V69.6686H291.052V71.2727H279.552V47.9394H291.052Z" fill="#FF7700"/>
<path d="M294.979 47.9394H302.458C303.76 47.9394 304.922 48.205 305.938 48.7311C306.948 49.2467 307.75 50.0227 308.333 51.0644C308.917 52.0956 309.208 53.3717 309.208 54.8977C309.208 56.8144 308.719 58.3509 307.75 59.5019C306.792 60.6425 305.604 61.3561 304.188 61.6477L309.188 70.8769V71.2727H307.458L302.375 61.7727H296.688V71.2727H294.917L294.979 47.9394ZM296.688 60.1686H302.458C303.359 60.1686 304.177 59.9759 304.917 59.5852C305.667 59.1998 306.271 58.6217 306.729 57.8561C307.188 57.0956 307.417 56.1425 307.417 55.0019C307.417 53.7675 307.188 52.7467 306.729 51.9394C306.271 51.1217 305.667 50.5175 304.917 50.1269C304.177 49.7415 303.359 49.5436 302.458 49.5436H296.688V60.1686Z" fill="#FF7700"/>
<path d="M159.12 13.9897H173.432V23.6772H163.057C161.724 23.6772 160.625 23.9897 159.766 24.6147C158.917 25.2293 158.495 26.3335 158.495 27.9272V37.1564H171.203V46.8231H158.495V72.0731H146.578V29.9481C146.578 27.9377 146.641 25.9793 146.766 24.0731C146.891 22.1564 147.328 20.4481 148.078 18.9481C148.828 17.4481 150.062 16.2502 151.786 15.3439C153.521 14.4429 155.964 13.9897 159.12 13.9897Z" fill="#FF7700"/>
<path d="M210.065 56.8856C210.065 58.9012 209.841 60.8647 209.398 62.7814C208.966 64.6877 208.169 66.3856 207.003 67.8856C205.846 69.3856 204.18 70.5887 202.003 71.4897C199.836 72.3908 197.049 72.8439 193.648 72.8439C190.242 72.8439 187.461 72.3908 185.294 71.4897C183.128 70.5887 181.461 69.3856 180.294 67.8856C179.128 66.3856 178.32 64.6877 177.878 62.7814C177.445 60.8647 177.232 58.9012 177.232 56.8856V13.9897H189.148V58.9897C189.148 60.5887 189.555 61.6981 190.378 62.3231C191.211 62.9377 192.273 63.2397 193.565 63.2397C194.909 63.2397 196.008 62.9377 196.857 62.3231C197.716 61.6981 198.148 60.5887 198.148 58.9897V13.9897H210.065V56.8856Z" fill="#FF7700"/>
</g>
<defs>
<clipPath id="clip0_110_66">
<rect width="309" height="100" fill="white"/>
</clipPath>
</defs>
</svg>
