<svg width="161" height="200" viewBox="0 0 161 200" fill="none" xmlns="http://www.w3.org/2000/svg">
<g clip-path="url(#clip0_110_133)">
<mask id="mask0_110_133" style="mask-type:luminance" maskUnits="userSpaceOnUse" x="-1" y="0" width="162" height="200">
<path d="M-0.5 0H160.5V200H-0.5V0Z" fill="white"/>
</mask>
<g mask="url(#mask0_110_133)">
<path d="M160.5 80.6042C160.5 36.3386 124.776 0.395853 80.5781 0.057312C80.4115 0.057312 80.2396 0.057312 80.0469 0.057312C80.026 0.057312 80.026 0.057312 80 0.057312C79.974 0.057312 79.974 0.057312 79.9531 0.057312C79.7813 0.057312 79.6146 0.057312 79.4219 0.057312C35.224 0.395853 -0.5 36.3386 -0.5 80.6042C-0.5 90.9584 1.45313 100.833 5.00521 109.932C5.02604 109.958 5.02604 109.979 5.02604 110.031C5.07813 110.172 5.14583 110.318 5.19792 110.464C19.776 147.203 47.1719 172.74 72.3229 196.13C74.8802 198.375 77.1979 199.604 79.4219 199.87V199.917C79.6146 199.917 79.8073 199.917 80 199.917C80.1927 199.917 80.3854 199.943 80.5781 199.917V199.87C82.8021 199.604 85.1198 198.375 87.6771 196.13C112.828 172.74 140.224 147.203 154.802 110.438C154.854 110.297 154.922 110.151 154.974 110.005C154.974 109.979 154.995 109.958 154.995 109.906C158.547 100.833 160.5 90.9584 160.5 80.6042ZM79.9531 140.469C47.5833 140.469 21.3698 114.229 21.3698 81.8854C21.3698 49.5156 47.6094 23.3021 79.9531 23.3021C112.323 23.3021 138.536 49.5156 138.536 81.8854C138.536 114.229 112.323 140.469 79.9531 140.469ZM109.688 91.0104C111.932 93.4688 111.792 96.0052 111.792 96.0052V113.406C111.792 115.87 109.88 117.849 107.516 117.849H91.7083C91.7083 117.849 88.1094 117.969 88.1094 114.469C88.1094 110.995 88.1094 97.4271 88.1094 97.4271C88.1094 96.5104 87.2656 95.7656 86.2031 95.7656H73.724C72.6615 95.7656 71.8177 96.5104 71.8177 97.4271C71.8177 97.4271 71.8177 110.802 71.8177 114.469C71.8177 118.141 68.5573 117.849 68.5573 117.849H52.4323C50.0677 117.849 48.1615 115.87 48.1615 113.406V94.0729C48.1615 94.0729 48.0885 93.3021 48.8125 92.5313C52.75 88.4479 73.1198 67.2813 75.3906 64.9167C80.099 60.2344 80.099 60.2344 84.5156 64.9167C87.9635 68.4167 103.922 85 109.688 91.0104ZM126.974 88.7396L120.792 95.1615C120.406 95.5729 119.901 95.7656 119.391 95.7656C119.031 95.7656 118.667 95.6667 118.354 95.4479L80.9896 56.6615C80.4323 56.0834 79.5417 56.0834 79.0104 56.6615L41.6667 95.4479C41.3542 95.6406 40.9948 95.7656 40.6302 95.7656C40.125 95.7656 39.6198 95.5729 39.2292 95.1615L33.0521 88.7396C32.2813 87.9167 32.2813 86.6146 33.0521 85.8177L72.4219 44.9271L78.599 38.5104C78.9844 38.099 79.4948 37.9063 80 37.9063C80.5052 37.9063 81.0156 38.099 81.401 38.5104L87.5781 44.9271L100.13 57.9636V54.0052C100.13 53.2344 100.734 52.6042 101.505 52.6042H110.438C111.188 52.6042 111.813 53.2344 111.813 54.0052V70.0573L126.974 85.7969C127.745 86.6146 127.745 87.9167 126.974 88.7396Z" fill="#FF7700"/>
</g>
</g>
<defs>
<clipPath id="clip0_110_133">
<rect width="161" height="200" fill="white"/>
</clipPath>
</defs>
</svg>
