<svg width="245" height="27" viewBox="0 0 245 27" fill="none" xmlns="http://www.w3.org/2000/svg">
<g clip-path="url(#clip0_110_139)">
<mask id="mask0_110_139" style="mask-type:luminance" maskUnits="userSpaceOnUse" x="66" y="0" width="23" height="28">
<path d="M66.4531 0.489594H88.4531V27.4896H66.4531V0.489594Z" fill="white"/>
</mask>
<g mask="url(#mask0_110_139)">
<path d="M88.2031 11.375C88.2031 5.39585 83.375 0.541687 77.4063 0.494812C77.3854 0.494812 77.3594 0.494812 77.3333 0.494812C77.3333 0.494812 77.3333 0.494812 77.3281 0.494812C77.3229 0.494812 77.3229 0.494812 77.3229 0.494812C77.2969 0.494812 77.276 0.494812 77.25 0.494812C71.2813 0.541687 66.4531 5.39585 66.4531 11.375C66.4531 12.7761 66.7187 14.1094 67.1979 15.3386C67.1979 15.3438 67.1979 15.3438 67.1979 15.3542C67.2083 15.3698 67.2187 15.3906 67.224 15.4115C69.1927 20.375 72.8958 23.8229 76.2917 26.9844C76.6354 27.2865 76.9479 27.4531 77.25 27.4896V27.4948C77.276 27.4948 77.3021 27.4948 77.3281 27.4948C77.3542 27.4948 77.3802 27.5 77.4063 27.4948V27.4896C77.7083 27.4531 78.0208 27.2865 78.3646 26.9844C81.7604 23.8229 85.4635 20.375 87.4323 15.4063C87.4427 15.3854 87.4479 15.3698 87.4583 15.349C87.4583 15.3438 87.4583 15.3438 87.4583 15.3334C87.9375 14.1094 88.2031 12.7761 88.2031 11.375ZM77.3229 19.4636C72.9479 19.4636 69.4063 15.9167 69.4063 11.5521C69.4063 7.1771 72.9531 3.63544 77.3229 3.63544C81.6927 3.63544 85.2344 7.1771 85.2344 11.5521C85.2344 15.9167 81.6927 19.4636 77.3229 19.4636ZM81.3385 12.7813C81.6406 13.1146 81.625 13.4584 81.625 13.4584V15.8073C81.625 16.1406 81.3646 16.4063 81.0469 16.4063H78.9115C78.9115 16.4063 78.4219 16.4271 78.4219 15.9531C78.4219 15.4844 78.4219 13.6511 78.4219 13.6511C78.4219 13.5261 78.3073 13.4271 78.1667 13.4271H76.4792C76.3385 13.4271 76.224 13.5261 76.224 13.6511C76.224 13.6511 76.224 15.4584 76.224 15.9531C76.224 16.4479 75.7813 16.4063 75.7813 16.4063H73.6042C73.2865 16.4063 73.026 16.1406 73.026 15.8073V13.1979C73.026 13.1979 73.0156 13.0938 73.1146 12.9896C73.6458 12.4375 76.401 9.57815 76.7031 9.25523C77.3437 8.62502 77.3437 8.62502 77.9375 9.25523C78.4063 9.72919 80.5573 11.9688 81.3385 12.7813ZM83.6719 12.474L82.8385 13.3438C82.7865 13.4011 82.7188 13.4271 82.651 13.4271C82.599 13.4271 82.5521 13.4115 82.5104 13.3802L77.4635 8.14065C77.3854 8.06252 77.2656 8.06252 77.1927 8.14065L72.151 13.3802C72.1094 13.4063 72.0573 13.4271 72.0104 13.4271C71.9427 13.4271 71.875 13.4011 71.8229 13.3438L70.9844 12.474C70.8802 12.3646 70.8802 12.1875 70.9844 12.0834L76.3021 6.55731L77.1406 5.68752C77.1927 5.63544 77.2604 5.6094 77.3281 5.6094C77.3958 5.6094 77.4635 5.63544 77.5156 5.68752L78.3542 6.55731L80.0469 8.31773V7.78127C80.0469 7.6771 80.1302 7.59377 80.2344 7.59377H81.4427C81.5417 7.59377 81.625 7.6771 81.625 7.78127V9.95315L83.6719 12.0781C83.776 12.1875 83.776 12.3646 83.6719 12.474Z" fill="#FF7700"/>
</g>
<path d="M10.9315 2.16666V3.77082H1.36898V14.3333C2.14502 14 3.04085 13.7448 4.05648 13.5625C5.08252 13.3698 6.13981 13.2604 7.22314 13.2292C8.31689 13.1875 9.31169 13.2448 10.2023 13.3958V14.875L9.97314 15.0625C9.30648 14.8854 8.44189 14.8021 7.38981 14.8125C6.34814 14.8281 5.27523 14.9323 4.18148 15.125C3.09814 15.3073 2.16064 15.5989 1.36898 16V25.5H-0.401855V2.16666H10.9315Z" fill="#FF7700"/>
<path d="M29.1707 18.125V2.16666H27.3999V18.1667C27.3999 19.5312 27.1343 20.6614 26.6082 21.5625C26.0926 22.4531 25.3895 23.125 24.5041 23.5833C23.6291 24.0417 22.6707 24.2708 21.6291 24.2708C20.5457 24.2708 19.5562 24.0417 18.6707 23.5833C17.7801 23.125 17.0666 22.4531 16.5249 21.5625C15.9937 20.6614 15.7332 19.5312 15.7332 18.1667V2.16666H13.9624V18.125C13.9624 19.6667 14.1916 20.9375 14.6499 21.9375C15.1187 22.9375 15.7332 23.7292 16.4832 24.3125C17.2437 24.8854 18.077 25.2864 18.9832 25.5208C19.8843 25.7552 20.7645 25.875 21.6291 25.875C22.4728 25.875 23.3374 25.7552 24.2124 25.5208C25.0874 25.2864 25.8895 24.8854 26.6291 24.3125C27.3791 23.7292 27.9884 22.9375 28.4624 21.9375C28.9312 20.9375 29.1707 19.6667 29.1707 18.125Z" fill="#FF7700"/>
<path d="M57.683 2.16666H59.4539V25.5H57.683V14.625H45.1622V25.5H43.3914V2.16666H45.1622V13.0417H57.683V2.16666Z" fill="#FF7700"/>
<path d="M108.353 18.125V2.16666H106.583V18.1667C106.583 19.5312 106.317 20.6614 105.791 21.5625C105.275 22.4531 104.572 23.125 103.687 23.5833C102.812 24.0417 101.853 24.2708 100.812 24.2708C99.7284 24.2708 98.7388 24.0417 97.8534 23.5833C96.9627 23.125 96.2492 22.4531 95.7075 21.5625C95.1763 20.6614 94.9159 19.5312 94.9159 18.1667V2.16666H93.145V18.125C93.145 19.6667 93.3742 20.9375 93.8325 21.9375C94.3013 22.9375 94.9159 23.7292 95.6659 24.3125C96.4263 24.8854 97.2596 25.2864 98.1659 25.5208C99.0669 25.7552 99.9471 25.875 100.812 25.875C101.655 25.875 102.52 25.7552 103.395 25.5208C104.27 25.2864 105.072 24.8854 105.812 24.3125C106.562 23.7292 107.171 22.9375 107.645 21.9375C108.114 20.9375 108.353 19.6667 108.353 18.125Z" fill="#FF7700"/>
<path d="M125.375 20.0625C125.375 21.8854 124.776 23.3125 123.583 24.3542C122.401 25.3854 120.813 25.8958 118.813 25.8958C117.714 25.8958 116.729 25.7604 115.854 25.5C114.979 25.25 114.229 24.9531 113.604 24.6042C112.979 24.2448 112.511 23.9479 112.208 23.7083V21.9583H112.542C113.208 22.5417 114.11 23.0781 115.25 23.5625C116.401 24.0521 117.589 24.2917 118.813 24.2917C119.656 24.2917 120.443 24.1667 121.167 23.9167C121.901 23.6667 122.5 23.2604 122.958 22.6875C123.417 22.1198 123.646 21.375 123.646 20.4583C123.646 19.7917 123.511 19.2031 123.25 18.6875C123 18.1614 122.573 17.6406 121.979 17.125C121.396 16.5989 120.583 16.0156 119.542 15.375L116.917 13.7083C116.485 13.4323 115.969 13.1042 115.375 12.7292C114.792 12.3542 114.214 11.9114 113.646 11.3958C113.089 10.8854 112.625 10.2708 112.25 9.56249C111.886 8.85416 111.708 8.03645 111.708 7.10416C111.708 5.32812 112.297 3.99999 113.479 3.12499C114.672 2.23957 116.156 1.79166 117.938 1.79166C119.089 1.79166 120.063 1.91666 120.854 2.16666C121.646 2.41666 122.292 2.70832 122.792 3.04166C123.292 3.37499 123.672 3.67707 123.938 3.93749V5.66666H123.604C123.38 5.37499 122.969 5.05728 122.375 4.70832C121.792 4.34895 121.089 4.04166 120.271 3.79166C119.448 3.53124 118.563 3.39582 117.604 3.39582C116.479 3.39582 115.5 3.71874 114.667 4.35416C113.844 4.97916 113.438 5.86457 113.438 6.99999C113.438 8.03124 113.776 8.90624 114.458 9.62499C115.151 10.3489 115.979 11.0156 116.938 11.625L120.771 14.1042C121.615 14.6354 122.38 15.1771 123.063 15.7292C123.755 16.2708 124.313 16.8906 124.729 17.5833C125.156 18.2656 125.375 19.0937 125.375 20.0625Z" fill="#FF7700"/>
<path d="M140.739 2.16666V3.77082H131.01V13.2083C131.786 12.875 132.682 12.6146 133.698 12.4167C134.724 12.2239 135.781 12.1146 136.864 12.0833C137.958 12.0573 138.953 12.1198 139.843 12.2708V13.7292L139.614 13.9375C138.948 13.7604 138.083 13.6771 137.031 13.6875C135.989 13.7031 134.916 13.8073 133.823 14C132.739 14.1823 131.802 14.4739 131.01 14.875V23.8958H140.739V25.5H129.239V2.16666H140.739Z" fill="#FF7700"/>
<path d="M165.636 2.16666V3.77082H156.073V14.3333C156.849 14 157.745 13.7448 158.761 13.5625C159.787 13.3698 160.844 13.2604 161.927 13.2292C163.021 13.1875 164.016 13.2448 164.906 13.3958V14.875L164.677 15.0625C164.011 14.8854 163.146 14.8021 162.094 14.8125C161.052 14.8281 159.979 14.9323 158.886 15.125C157.802 15.3073 156.865 15.5989 156.073 16V25.5H154.302V2.16666H165.636Z" fill="#FF7700"/>
<path d="M169.167 2.16666H170.937V25.5H169.167V2.16666Z" fill="#FF7700"/>
<path d="M189.374 2.16666H191.124V25.5H187.79L178.27 3.83332H177.77V25.5H175.999V2.16666H179.332L188.936 23.8333H189.436L189.374 2.16666Z" fill="#FF7700"/>
<path d="M201.862 2.16666H196.196V25.5H201.862C203.748 25.5 205.43 25.0833 206.904 24.25C208.389 23.4167 209.555 22.1406 210.404 20.4167C211.264 18.6979 211.696 16.5 211.696 13.8333C211.696 11.1406 211.264 8.93749 210.404 7.22916C209.555 5.52082 208.389 4.24999 206.904 3.41666C205.43 2.58332 203.748 2.16666 201.862 2.16666ZM197.967 23.8958V3.77082H201.8C204.243 3.77082 206.201 4.64062 207.675 6.37499C209.159 8.09895 209.904 10.5833 209.904 13.8333C209.904 17.0156 209.165 19.4896 207.696 21.25C206.222 23.0156 204.258 23.8958 201.8 23.8958H197.967Z" fill="#FF7700"/>
<path d="M227.226 2.16666V3.77082H217.497V13.2083C218.273 12.875 219.169 12.6146 220.184 12.4167C221.21 12.2239 222.268 12.1146 223.351 12.0833C224.445 12.0573 225.44 12.1198 226.33 12.2708V13.7292L226.101 13.9375C225.434 13.7604 224.57 13.6771 223.518 13.6875C222.476 13.7031 221.403 13.8073 220.309 14C219.226 14.1823 218.289 14.4739 217.497 14.875V23.8958H227.226V25.5H215.726V2.16666H227.226Z" fill="#FF7700"/>
<path d="M231.153 2.16666H238.632C239.934 2.16666 241.096 2.43228 242.111 2.95832C243.122 3.47395 243.924 4.24999 244.507 5.29166C245.09 6.32291 245.382 7.59895 245.382 9.12499C245.382 11.0417 244.892 12.5781 243.924 13.7292C242.965 14.8698 241.778 15.5833 240.361 15.875L245.361 25.1042V25.5H243.632L238.549 16H232.861V25.5H231.09L231.153 2.16666ZM232.861 14.3958H238.632C239.533 14.3958 240.351 14.2031 241.09 13.8125C241.84 13.4271 242.444 12.8489 242.903 12.0833C243.361 11.3229 243.59 10.3698 243.59 9.22916C243.59 7.99478 243.361 6.97395 242.903 6.16666C242.444 5.34895 241.84 4.74478 241.09 4.35416C240.351 3.96874 239.533 3.77082 238.632 3.77082H232.861V14.3958Z" fill="#FF7700"/>
</g>
<defs>
<clipPath id="clip0_110_139">
<rect width="245" height="27" fill="white"/>
</clipPath>
</defs>
</svg>
